<mxfile host="65bd71144e">
    <diagram id="s98oAX3t3QnvA7-sH4KN" name="Page-1">
        <mxGraphModel dx="481" dy="824" grid="1" gridSize="10" guides="1" tooltips="1" connect="1" arrows="1" fold="1" page="1" pageScale="1" pageWidth="850" pageHeight="1100" background="#FFFFFF" math="0" shadow="0">
            <root>
                <mxCell id="0"/>
                <mxCell id="1" parent="0"/>
                <mxCell id="2" value="Actor" style="shape=umlActor;verticalLabelPosition=bottom;verticalAlign=top;html=1;outlineConnect=0;fillColor=#f5f5f5;fontColor=#333333;strokeColor=#666666;" parent="1" vertex="1">
                    <mxGeometry x="40" y="160" width="30" height="60" as="geometry"/>
                </mxCell>
                <mxCell id="4" value="I.6.3&lt;br&gt;Menú de premios" style="shape=umlBoundary;whiteSpace=wrap;html=1;fillColor=#f5f5f5;fontColor=#333333;strokeColor=#666666;" parent="1" vertex="1">
                    <mxGeometry x="125" y="150" width="90" height="60" as="geometry"/>
                </mxCell>
                <mxCell id="5" value="I.6.4&lt;br&gt;Descripción de premio" style="shape=umlBoundary;whiteSpace=wrap;html=1;fillColor=#f5f5f5;fontColor=#333333;strokeColor=#666666;" parent="1" vertex="1">
                    <mxGeometry x="125" y="250" width="90" height="60" as="geometry"/>
                </mxCell>
                <mxCell id="6" value="Gestor" style="ellipse;shape=umlControl;whiteSpace=wrap;html=1;fillColor=#f5f5f5;fontColor=#333333;strokeColor=#666666;" parent="1" vertex="1">
                    <mxGeometry x="280" y="180" width="60" height="70" as="geometry"/>
                </mxCell>
                <mxCell id="7" value="ResultadoSQL" style="ellipse;shape=umlEntity;whiteSpace=wrap;html=1;fillColor=#f5f5f5;fontColor=#333333;strokeColor=#666666;" parent="1" vertex="1">
                    <mxGeometry x="590" y="260" width="90" height="70" as="geometry"/>
                </mxCell>
                <mxCell id="8" value="GestorPremios" style="ellipse;shape=umlControl;whiteSpace=wrap;html=1;fillColor=#f5f5f5;fontColor=#333333;strokeColor=#666666;" parent="1" vertex="1">
                    <mxGeometry x="390" y="110" width="90" height="80" as="geometry"/>
                </mxCell>
                <mxCell id="9" value="" style="endArrow=classic;html=1;fillColor=#f5f5f5;strokeColor=#666666;" parent="1" source="4" target="6" edge="1">
                    <mxGeometry width="50" height="50" relative="1" as="geometry">
                        <mxPoint x="170" y="320" as="sourcePoint"/>
                        <mxPoint x="220" y="270" as="targetPoint"/>
                    </mxGeometry>
                </mxCell>
                <mxCell id="10" value="" style="endArrow=classic;html=1;rounded=1;labelBackgroundColor=default;fontFamily=Helvetica;fontSize=11;fontColor=default;strokeColor=#666666;fillColor=#f5f5f5;shape=connector;" parent="1" source="6" target="8" edge="1">
                    <mxGeometry width="50" height="50" relative="1" as="geometry">
                        <mxPoint x="350" y="320" as="sourcePoint"/>
                        <mxPoint x="400" y="270" as="targetPoint"/>
                    </mxGeometry>
                </mxCell>
                <mxCell id="11" value="SGBD" style="ellipse;shape=umlControl;whiteSpace=wrap;html=1;fontFamily=Helvetica;fontSize=11;fontColor=#333333;fillColor=#f5f5f5;strokeColor=#666666;" parent="1" vertex="1">
                    <mxGeometry x="570" y="110" width="70" height="80" as="geometry"/>
                </mxCell>
                <mxCell id="12" value="" style="endArrow=classic;html=1;rounded=1;labelBackgroundColor=default;fontFamily=Helvetica;fontSize=11;fontColor=#333333;strokeColor=#666666;fillColor=#f5f5f5;shape=connector;" parent="1" source="8" target="11" edge="1">
                    <mxGeometry width="50" height="50" relative="1" as="geometry">
                        <mxPoint x="480" y="300" as="sourcePoint"/>
                        <mxPoint x="530" y="250" as="targetPoint"/>
                    </mxGeometry>
                </mxCell>
                <mxCell id="13" value="" style="endArrow=classic;html=1;rounded=1;labelBackgroundColor=default;fontFamily=Helvetica;fontSize=11;fontColor=#333333;strokeColor=#666666;fillColor=#f5f5f5;shape=connector;" parent="1" source="11" target="7" edge="1">
                    <mxGeometry width="50" height="50" relative="1" as="geometry">
                        <mxPoint x="480" y="300" as="sourcePoint"/>
                        <mxPoint x="530" y="250" as="targetPoint"/>
                    </mxGeometry>
                </mxCell>
                <mxCell id="14" value="" style="endArrow=classic;html=1;rounded=1;labelBackgroundColor=default;fontFamily=Helvetica;fontSize=11;fontColor=#333333;strokeColor=#666666;fillColor=#f5f5f5;shape=connector;" parent="1" source="8" target="7" edge="1">
                    <mxGeometry width="50" height="50" relative="1" as="geometry">
                        <mxPoint x="480" y="300" as="sourcePoint"/>
                        <mxPoint x="530" y="250" as="targetPoint"/>
                    </mxGeometry>
                </mxCell>
                <mxCell id="15" value="" style="endArrow=classic;html=1;rounded=1;labelBackgroundColor=default;fontFamily=Helvetica;fontSize=11;fontColor=#333333;strokeColor=#666666;fillColor=#f5f5f5;shape=connector;" parent="1" source="4" target="5" edge="1">
                    <mxGeometry width="50" height="50" relative="1" as="geometry">
                        <mxPoint x="260" y="310" as="sourcePoint"/>
                        <mxPoint x="310" y="260" as="targetPoint"/>
                        <Array as="points">
                            <mxPoint x="230" y="230"/>
                        </Array>
                    </mxGeometry>
                </mxCell>
                <mxCell id="16" value="" style="endArrow=classic;html=1;rounded=1;labelBackgroundColor=default;fontFamily=Helvetica;fontSize=11;fontColor=#333333;strokeColor=#666666;fillColor=#f5f5f5;shape=connector;" parent="1" source="5" target="6" edge="1">
                    <mxGeometry width="50" height="50" relative="1" as="geometry">
                        <mxPoint x="240" y="360" as="sourcePoint"/>
                        <mxPoint x="290" y="310" as="targetPoint"/>
                    </mxGeometry>
                </mxCell>
                <mxCell id="17" value="" style="endArrow=classic;html=1;rounded=1;labelBackgroundColor=default;fontFamily=Helvetica;fontSize=11;fontColor=#333333;strokeColor=#666666;fillColor=#f5f5f5;shape=connector;" parent="1" target="4" edge="1">
                    <mxGeometry width="50" height="50" relative="1" as="geometry">
                        <mxPoint x="60" y="190" as="sourcePoint"/>
                        <mxPoint x="260" y="370" as="targetPoint"/>
                    </mxGeometry>
                </mxCell>
                <mxCell id="18" value="" style="endArrow=classic;html=1;rounded=1;labelBackgroundColor=default;fontFamily=Helvetica;fontSize=11;fontColor=#333333;strokeColor=#666666;fillColor=#f5f5f5;shape=connector;exitX=0.5;exitY=0.5;exitDx=0;exitDy=0;exitPerimeter=0;entryX=0.044;entryY=0.55;entryDx=0;entryDy=0;entryPerimeter=0;" parent="1" source="2" target="5" edge="1">
                    <mxGeometry width="50" height="50" relative="1" as="geometry">
                        <mxPoint x="170" y="450" as="sourcePoint"/>
                        <mxPoint x="220" y="400" as="targetPoint"/>
                    </mxGeometry>
                </mxCell>
                <mxCell id="19" value="" style="endArrow=classic;html=1;rounded=1;labelBackgroundColor=default;fontFamily=Helvetica;fontSize=11;fontColor=#333333;strokeColor=#666666;fillColor=#f5f5f5;shape=connector;entryX=0.422;entryY=0.983;entryDx=0;entryDy=0;entryPerimeter=0;" parent="1" source="5" target="4" edge="1">
                    <mxGeometry width="50" height="50" relative="1" as="geometry">
                        <mxPoint x="170" y="450" as="sourcePoint"/>
                        <mxPoint x="220" y="400" as="targetPoint"/>
                        <Array as="points">
                            <mxPoint x="140" y="230"/>
                        </Array>
                    </mxGeometry>
                </mxCell>
                <mxCell id="20" value="1" style="text;html=1;align=center;verticalAlign=middle;resizable=0;points=[];autosize=1;strokeColor=none;fillColor=none;fontSize=11;fontFamily=Helvetica;fontColor=#333333;" parent="1" vertex="1">
                    <mxGeometry x="240" y="180" width="20" height="20" as="geometry"/>
                </mxCell>
                <mxCell id="21" value="2" style="text;html=1;align=center;verticalAlign=middle;resizable=0;points=[];autosize=1;strokeColor=none;fillColor=none;fontSize=11;fontFamily=Helvetica;fontColor=#333333;" parent="1" vertex="1">
                    <mxGeometry x="80" y="160" width="20" height="20" as="geometry"/>
                </mxCell>
                <mxCell id="23" value="3" style="text;html=1;align=center;verticalAlign=middle;resizable=0;points=[];autosize=1;strokeColor=none;fillColor=none;fontSize=11;fontFamily=Helvetica;fontColor=#333333;" parent="1" vertex="1">
                    <mxGeometry x="225" y="220" width="20" height="20" as="geometry"/>
                </mxCell>
                <mxCell id="24" value="4" style="text;html=1;align=center;verticalAlign=middle;resizable=0;points=[];autosize=1;strokeColor=none;fillColor=none;fontSize=11;fontFamily=Helvetica;fontColor=#333333;" parent="1" vertex="1">
                    <mxGeometry x="90" y="220" width="20" height="20" as="geometry"/>
                </mxCell>
                <mxCell id="25" value="5" style="text;html=1;align=center;verticalAlign=middle;resizable=0;points=[];autosize=1;strokeColor=none;fillColor=none;fontSize=11;fontFamily=Helvetica;fontColor=#333333;" parent="1" vertex="1">
                    <mxGeometry x="125" y="220" width="20" height="20" as="geometry"/>
                </mxCell>
                <mxCell id="26" value="3.1" style="text;html=1;align=center;verticalAlign=middle;resizable=0;points=[];autosize=1;strokeColor=none;fillColor=none;fontSize=11;fontFamily=Helvetica;fontColor=#333333;" parent="1" vertex="1">
                    <mxGeometry x="235" y="250" width="30" height="20" as="geometry"/>
                </mxCell>
                <mxCell id="29" value="1.3" style="text;html=1;align=center;verticalAlign=middle;resizable=0;points=[];autosize=1;strokeColor=none;fillColor=none;fontSize=11;fontFamily=Helvetica;fontColor=#333333;" parent="1" vertex="1">
                    <mxGeometry x="360" y="190" width="30" height="20" as="geometry"/>
                </mxCell>
                <mxCell id="30" value="1.3.1" style="text;html=1;align=center;verticalAlign=middle;resizable=0;points=[];autosize=1;strokeColor=none;fillColor=none;fontSize=11;fontFamily=Helvetica;fontColor=#333333;" parent="1" vertex="1">
                    <mxGeometry x="490" y="130" width="40" height="20" as="geometry"/>
                </mxCell>
                <mxCell id="31" value="GestorUsuario" style="ellipse;shape=umlControl;whiteSpace=wrap;html=1;fontFamily=Helvetica;fontSize=11;fontColor=#333333;strokeColor=#666666;fillColor=#f5f5f5;" parent="1" vertex="1">
                    <mxGeometry x="266" y="50" width="84" height="70" as="geometry"/>
                </mxCell>
                <mxCell id="32" value="" style="endArrow=classic;html=1;rounded=1;labelBackgroundColor=default;fontFamily=Helvetica;fontSize=11;fontColor=#333333;strokeColor=#666666;fillColor=#f5f5f5;shape=connector;entryX=0.464;entryY=1.014;entryDx=0;entryDy=0;entryPerimeter=0;" parent="1" source="6" target="31" edge="1">
                    <mxGeometry width="50" height="50" relative="1" as="geometry">
                        <mxPoint x="210" y="410" as="sourcePoint"/>
                        <mxPoint x="260" y="360" as="targetPoint"/>
                    </mxGeometry>
                </mxCell>
                <mxCell id="33" value="1.1" style="text;html=1;align=center;verticalAlign=middle;resizable=0;points=[];autosize=1;strokeColor=none;fillColor=none;fontSize=11;fontFamily=Helvetica;fontColor=#333333;" parent="1" vertex="1">
                    <mxGeometry x="305" y="140" width="30" height="20" as="geometry"/>
                </mxCell>
                <mxCell id="34" value="Usuario" style="ellipse;shape=umlEntity;whiteSpace=wrap;html=1;fontFamily=Helvetica;fontSize=11;fontColor=#333333;strokeColor=#666666;fillColor=#f5f5f5;" parent="1" vertex="1">
                    <mxGeometry x="155" y="60" width="60" height="60" as="geometry"/>
                </mxCell>
                <mxCell id="35" value="" style="endArrow=classic;html=1;rounded=1;labelBackgroundColor=default;fontFamily=Helvetica;fontSize=11;fontColor=#333333;strokeColor=#666666;fillColor=#f5f5f5;shape=connector;" parent="1" source="31" target="34" edge="1">
                    <mxGeometry width="50" height="50" relative="1" as="geometry">
                        <mxPoint x="300" y="410" as="sourcePoint"/>
                        <mxPoint x="350" y="360" as="targetPoint"/>
                    </mxGeometry>
                </mxCell>
                <mxCell id="36" value="1.2.1" style="text;html=1;align=center;verticalAlign=middle;resizable=0;points=[];autosize=1;strokeColor=none;fillColor=none;fontSize=11;fontFamily=Helvetica;fontColor=#333333;" parent="1" vertex="1">
                    <mxGeometry x="225" y="90" width="40" height="20" as="geometry"/>
                </mxCell>
                <mxCell id="38" value="1.3.1.1" style="text;html=1;align=center;verticalAlign=middle;resizable=0;points=[];autosize=1;strokeColor=none;fillColor=none;fontSize=11;fontFamily=Helvetica;fontColor=#333333;" parent="1" vertex="1">
                    <mxGeometry x="620" y="200" width="50" height="20" as="geometry"/>
                </mxCell>
                <mxCell id="40" value="1.2" style="text;html=1;align=center;verticalAlign=middle;resizable=0;points=[];autosize=1;strokeColor=none;fillColor=none;fontSize=11;fontFamily=Helvetica;fontColor=#333333;" parent="1" vertex="1">
                    <mxGeometry x="305" y="160" width="30" height="20" as="geometry"/>
                </mxCell>
                <mxCell id="42" value="1.3.2" style="text;html=1;align=center;verticalAlign=middle;resizable=0;points=[];autosize=1;strokeColor=none;fillColor=none;fontSize=11;fontFamily=Helvetica;fontColor=#333333;" parent="1" vertex="1">
                    <mxGeometry x="490" y="220" width="40" height="20" as="geometry"/>
                </mxCell>
                <mxCell id="43" value="1.3.3" style="text;html=1;align=center;verticalAlign=middle;resizable=0;points=[];autosize=1;strokeColor=none;fillColor=none;fontSize=11;fontFamily=Helvetica;fontColor=#333333;" parent="1" vertex="1">
                    <mxGeometry x="490" y="240" width="40" height="20" as="geometry"/>
                </mxCell>
                <mxCell id="44" value="1.3.4" style="text;html=1;align=center;verticalAlign=middle;resizable=0;points=[];autosize=1;strokeColor=none;fillColor=none;fontSize=11;fontFamily=Helvetica;fontColor=#333333;" parent="1" vertex="1">
                    <mxGeometry x="490" y="260" width="40" height="20" as="geometry"/>
                </mxCell>
                <mxCell id="46" value="3.1.1" style="text;html=1;align=center;verticalAlign=middle;resizable=0;points=[];autosize=1;strokeColor=none;fillColor=none;fontSize=11;fontFamily=Helvetica;fontColor=#333333;" parent="1" vertex="1">
                    <mxGeometry x="355" y="210" width="40" height="20" as="geometry"/>
                </mxCell>
                <mxCell id="48" value="3.1.1.1" style="text;html=1;align=center;verticalAlign=middle;resizable=0;points=[];autosize=1;strokeColor=none;fillColor=none;fontSize=11;fontFamily=Helvetica;fontColor=#333333;" parent="1" vertex="1">
                    <mxGeometry x="495" y="150" width="50" height="20" as="geometry"/>
                </mxCell>
                <mxCell id="49" value="3.1.1.1.1" style="text;html=1;align=center;verticalAlign=middle;resizable=0;points=[];autosize=1;strokeColor=none;fillColor=none;fontSize=11;fontFamily=Helvetica;fontColor=#333333;" parent="1" vertex="1">
                    <mxGeometry x="620" y="220" width="60" height="20" as="geometry"/>
                </mxCell>
            </root>
        </mxGraphModel>
    </diagram>
</mxfile>